# xmcd
#
# Track frame offsets:
#	150
#	15384
#	31782
#	45770
#	59460
#	73178
#	87401
#	101846
#	118085
#	133037
#	149470
#	166293
#	182362
#	200184
#	216394
#	234297
#	251138
#	267467
#	285362
#	304319
#	319428
#	335883
#
# Disc length: 4695 seconds
#
# Revision: 0
# Processed by: cddbd v1.4PL0 Copyright (c) Steve Scherf et al.
# Submitted via: dBpowerAMP V4.0
#
DISCID=53125516
DTITLE=Alabama - For The Record - Disc 1
DYEAR=1900
DGENRE=Country
TTITLE0=Five O'Clock 500
TTITLE1=Keepin Up
TTITLE2=How Do You Fall In Love
TTITLE3=Tennesse River
TTITLE4=Why Lady Why
TTITLE5=Old Flame
TTITLE6=Feels So Right
TTITLE7=Love In The First Degree
TTITLE8=Mountain Music
TTITLE9=Take Me Down
TTITLE10=Close Enough To Perfect
TTITLE11=Dixieland Delight
TTITLE12=The Closer You Get
TTITLE13=Lady Down On Love
TTITLE14=Roll On (Eighteen Wheeler)
TTITLE15=When We Make Love
TTITLE16=If You're Gonna Play In Texas (You Gotta Have A Fiddle In The Band)
TTITLE17=(There's A) Fire In The Night
TTITLE18=There's No Way
TTITLE19=Forty Hour Week (For A Livin')
TTITLE20=Can't Keep A Good Man Down
TTITLE21=She And I
EXTD=
EXTT0=
EXTT1=
EXTT2=
EXTT3=
EXTT4=
EXTT5=
EXTT6=
EXTT7=
EXTT8=
EXTT9=
EXTT10=
EXTT11=
EXTT12=
EXTT13=
EXTT14=
EXTT15=
EXTT16=
EXTT17=
EXTT18=
EXTT19=
EXTT20=
EXTT21=
PLAYORDER=
